<svg xmlns="http://www.w3.org/2000/svg" viewBox="0 0 156.15 193.24"><defs><style>.cls-1{fill:#fff;}</style></defs><title>Asset 4</title><g id="Layer_2" data-name="Layer 2"><g id="Layer_1-2" data-name="Layer 1"><path d="M77.51,146.94c6.7,6.34,14.29,11.6,21.36,17.49,6.16,5.13,12,10.58,15.71,17.88a36.85,36.85,0,0,1,2.06,4.72c.67,1.95,2.15,4.66.61,5.86s-3.16-1.48-4.65-2.55C104.82,184.74,97,179.21,87.84,176c-9.53-3.32-18.84-2.55-28.15.76-2.77,1-5.6,1.78-8.4,2.66-5.1.84-10.19,1.37-15.18-.61-1.41-.56-3-1.2-2.8-2.94s1.91-1.45,3.18-1.8c2.58-.72,5.21-1.45,7.14-3.53,16.57-13.72,7.42-42-7.54-53.4-9.21-7-20.88-4.52-27.53,5.6a50.12,50.12,0,0,0-5.1,11.16c-1.12.28-1.48-.27-1.65-.85C-2.48,118.56.18,104.51,17.43,99.58c6.62-1.89,13.38-3.19,19.34-7C50.52,83.83,59,70.91,65.49,56.42a97,97,0,0,0,7.89-27.24c.12-.91,0-2,1.29-2.88,2.33,3.4,2.42,7.09,1.84,10.86-2.1,13.49-7,26.15-11.88,38.77-3.09,8-5.51,16.08-6.29,24.6-1.46,16,3,30.06,14.27,41.73C74.23,143.84,76,145.28,77.51,146.94Z"/><path d="M83.68,140.83C73.8,130.72,69,118.22,67.45,104.49c-1.22-10.83-.89-21.66,4.36-31.7,2.61-1.17,3.45-3.62,4.33-6a24.05,24.05,0,0,1,13.57-9c12.91-3.52,24.93-8.85,35.21-17.64a13.73,13.73,0,0,0,3-3.72L130.87,32c3.7-6.62,4-13.28.22-20a.61.61,0,0,1-.17-.65c1-2.68,2.72-1.45,4.33-.78,7.92,4.66,13.45,17.38,11.63,26.71-1.52,7.83-5.37,14.35-10.09,20.53a5.39,5.39,0,0,1-2.87,3.07L130.39,64a12.16,12.16,0,0,0-6.88,5.64,71.17,71.17,0,0,1-15.37,9.13,17.55,17.55,0,0,0-5.28,3l-3.08,2.74a17.62,17.62,0,0,1-3.66,3C84.81,98.4,82.65,112,84.68,126.72a70.28,70.28,0,0,0,3.39,14.1C86.61,142.17,85.14,141.67,83.68,140.83Z"/><path d="M110.29,129.06c.81-9,5-15.73,13.24-19.71.72-.35,1.56-1.11,2.32-.26.6.66-.08,1.35-.38,2-6,13-6.93,26.5-4.72,40.4.79,5,3,9.58,4.31,14.44,1.17,4.67.82,5.21-2.87,4.47-9.85-7-19-14.9-25.1-25.5-8.92-15.52-8.62-31,1.71-45.92A10.37,10.37,0,0,0,99.64,97c3,.25,2,2.12,1.75,3.94-1.17,7.46-2,14.93,1.5,22.08l4.32,7.47C109.28,132.22,109.27,129.57,110.29,129.06Z"/><path d="M144.29,86.19a148.77,148.77,0,0,1-4.47,19.13c-2.51,1.26-3.76.33-3.51-2.31.15-1.54-.08-3.13.45-4.64-.75-1-1.52-2.1-3-1.35-2.59,1.3-5.45,1.46-8.21,2-8.35,1.6-12.9,7.51-16.56,14.48-.75,1.44-1,4.27-2.63,3.9-2.31-.54-1.46-3.36-1.31-5.14.78-9.24,7-14.56,14.38-18.68a43.78,43.78,0,0,1,8.63-3.14c5.57-1.69,9-5.51,11.39-10.62a1.88,1.88,0,0,0-.47-2.54c-1.79-1.1-2.81.78-4.14,1.23s-2.62,1.15-4,1.57l-4.72,1.68c-2.11.51-4.38.6-5.87,2.62a1.67,1.67,0,0,1-2.6.24,2,2,0,0,1-.34-2.68c.56-.93,1.48-1.64,1.71-2.78l.56-.59c8.32-4.19,16.67-8.32,22.68-15.85,1.18-1.47,1.71-3.27,2.72-4.81l0,0c1.66-1.21,2.3-3.1,3.19-4.82.33-.64.51-1.49,1.47-1.3s1.17,1.07,1.29,2c.2,1.55-.79,2.82-1,4.24C148.77,67.55,145.33,76.63,144.29,86.19Z"/><path d="M136.92,117.49c-.18,4.34-1.75,8.4-2.67,12.58-1.08,4.92-.5,6.07,4.29,7.51,6.36,1.91,11.63,5.27,15,11.19,4,7.13.78,12.88-7.36,13-7.48.08-11.94-3.45-15.09-11.66-3.73-9.74-3.33-19.46-.27-29.24,1.26-2.52,1.39-5.39,2.39-8a6.66,6.66,0,0,1,1.3-2.6,1.89,1.89,0,0,1,2-.69,1.72,1.72,0,0,1,1.1,1.75A33.55,33.55,0,0,1,136.92,117.49Z"/><path d="M30.75,85.56a11.59,11.59,0,0,1-11.48-11.5A11.73,11.73,0,0,1,30.92,62.63c6-.08,11.17,5.21,11.22,11.37A11.48,11.48,0,0,1,30.75,85.56Z"/><path d="M87.87,22.61c0,2.49,2.57,3.55,3.13,5.72,1.25,1.7.31,4.15,1.94,5.72.15,3,2.35,2.43,4.22,2.45,2.51-.56,5.23.37,7.62-1.07a3.18,3.18,0,0,1,1.1-.28c2,.44,3.94,1.07,6.1.17,1.37-.58,3.07-.49,3,1.84-1.29,2.51-4,2.73-6.17,3.75-2.71,1.83-6.12.93-8.95,2.3h0c-1.25,1.26-3.27.07-4.5,1.42l.06.09c-1.27,1.21-3.27,0-4.5,1.39l0,0c-2.81.69-5.16,2.48-7.91,3.33C81,48.86,81.27,47.5,82,46a69.3,69.3,0,0,0,1.52-17.54c-.58-2.42-1.87-5,1.19-6.76A3.06,3.06,0,0,1,87.87,22.61Z"/><path d="M144.29,86.19c-.07-7.39,2.1-14.33,3.88-21.42a80.86,80.86,0,0,0,2-12.45c-3,1.26-1.56,5.65-5.23,5.61a93.17,93.17,0,0,0,8.34-21.58c.21-.93.4-2.29,1.65-2,1.44.28,1.18,1.76,1,2.78-1.09,5-2.2,10.09-3.47,15.09C149.54,63.47,147.69,75,144.29,86.19Z"/><path d="M43.62,170.55c-1,4-4.58,3.49-7.39,4.32-.87.26-2.3-.21-2.31,1.08,0,.76,1.05,1.44,2,1.89,5,2.36,10.23,1.17,15.36,1.59-5.55,2.58-11.09,1.75-16.62,0A8.69,8.69,0,0,1,31.11,177c-.68-.51-1.39-1-2-1.54-.43-.38-1-.79-.71-1.51s1-.64,1.58-.56C34.86,174.11,39.26,172.41,43.62,170.55Z"/><path d="M136.92,117.49v-7.9c-3.52,2.23-3.73,5.26-4.43,7.93-.34,1.28,0,2.76-1.67,3.32.47-5.25,2.58-10.1,3.8-15.17.6-2.46,1.42-4.86,2.14-7.3a33.54,33.54,0,0,1,.08,4.05c-.22,2.31.77,3.18,3,2.89A49.76,49.76,0,0,1,136.92,117.49Z"/><path d="M102.89,123.06c-2.23-1.41-2.73-3.91-2.91-6.06-.38-4.53-.12-9.11-.12-13.67a3.42,3.42,0,0,1,.69-2.41c1.37-1.63.83-2.92-.92-3.88a14.34,14.34,0,0,1,5-5.44C100.29,102,100.17,112.45,102.89,123.06Z"/><path d="M145,57.91c-.24,2.82-1.79,4.81-3.68,6.85A44.71,44.71,0,0,1,125.93,76c-2.11.9-3.45,3.59-6.35,2.6a10.49,10.49,0,0,1,4.66-3.42C133,71.55,139.67,65.6,145,57.91Z"/><path d="M119,79.16c.4,1.36-.5,2.23-1.15,3.24a1.34,1.34,0,0,0,.39,1.92c.58.36,1.48.21,1.58-.32.83-4.42,4.16-1.58,6.27-2.24a55.83,55.83,0,0,0-9.6,6.55c-.51.47-1.07,1.18-1.87.73s-.49-1.25-.36-2A12.16,12.16,0,0,1,119,79.16Z"/><path d="M114.63,37.2A1.44,1.44,0,0,0,112.25,36c-2.4,1.92-4.44,1.08-6.55-.33a.83.83,0,0,1,.18-1.33l7.28-.18a5.75,5.75,0,0,1,3.82-.75c1.2.09,2.89.2,2.12,2.31l-.12-.08C117.62,36.44,116.58,38.12,114.63,37.2Z"/><path d="M131.08,12.05c2.09.78,2.9,2.28,2.84,4.49-.09,3.15-.15,6.32,0,9.46a6.14,6.14,0,0,1-3.09,6C133.61,25.41,134,18.75,131.08,12.05Z"/><path d="M114.63,37.2c1.59-.09,2.52-2.09,4.35-1.52-2.23,4-6.27,5-10.26,6a.88.88,0,0,1,0-1.37Z"/><path d="M135.24,10.62c-1.45.23-3.1-.65-4.33.78A12.59,12.59,0,0,1,127.85,6C131,7.26,133.51,8.22,135.24,10.62Z"/><path d="M83.52,49C85.61,47,88,45.76,91,46.13c-1.82,2.58-4.71,3.35-7.45,4.34A1.09,1.09,0,0,1,83.52,49Z"/><path d="M122.2,170.4c4.08.52,2.42-2.65,2.87-4.47l1.48,2.29a6.25,6.25,0,0,1,.53.93c.49,1.44,2.65,2.89.71,4.38s-2.9-.82-4.24-1.62Z"/><path d="M87.87,22.61l-2.73-.3c-1.15-1.06-2.16-.09-3.21.24-2.06-1.13-2-2.5.17-3C84.61,19,87.2,19.25,87.87,22.61Z"/><path d="M76.14,66.75c.17,3.17.31,6.32-4.33,6C72.18,70,74.24,68.44,76.14,66.75Z"/><path d="M123.51,69.64c.57-3.65,3.13-5.74,6.88-5.64A24.22,24.22,0,0,1,123.51,69.64Z"/><path d="M108.77,40.26l0,1.37C106,43.57,103,43.34,99.9,43.21c.07-.63.26-1.38.93-1.35C103.63,42,106.17,41,108.77,40.26Z"/><path d="M81.93,22.55c.91-2.25,2-2.42,3.21-.24-3.12,1.36-.67,4.22-1.66,6.15C81.06,27,82.6,24.48,81.93,22.55Z"/><path d="M96.82,37.18c-2,0-4.81,1.11-4.45-2.77a1.3,1.3,0,0,1,.22-1.77c1.51,1.67,2.59,4.16,5.61,2.93l.36.31C98.56,37.1,97.34,36.68,96.82,37.18Z"/><path d="M105.88,34.38l-.18,1.33h-.34l-.34,0a7.21,7.21,0,0,1-6.6.1l-.24-.26C100.42,33,103.31,34.68,105.88,34.38Z"/><path d="M83.68,140.83h4.39a1.74,1.74,0,0,1,.4,2.73c-.81.84-1.74-.07-2.46-.64S84,142,83.68,140.83Z"/><path d="M83.52,49q0,.75,0,1.5c-1.19.07-2.66.54-2.88-1.27C80.51,48,79.86,46.38,82,46,82.46,47,81.45,48.8,83.52,49Z"/><path d="M92.58,32.65l-.21,1.77A9.92,9.92,0,0,1,91,28.33C93.5,29,92.11,31.19,92.58,32.65Z"/><path d="M77.51,146.94a13.22,13.22,0,0,1-4.89-4.68C74.73,143.31,76.64,144.59,77.51,146.94Z"/><path d="M102.86,81.75c1-2.31,3-2.9,5.28-3A12.7,12.7,0,0,1,102.86,81.75Z"/><path d="M91,46.11c.92-2.34,2.9-1.27,4.5-1.39C94.59,47.2,92.53,45.85,91,46.11Z"/><path d="M95.41,44.63c.85-2.53,2.92-1.18,4.5-1.42C99,45.63,97,44.42,95.41,44.63Z"/><path d="M127.95,36.43c.14,2.18-1.18,3.16-3,3.72C125.36,38.44,126.72,37.49,127.95,36.43Z"/><path d="M98.43,35.84l6.6-.1c-.55,2.41-2.5,1.29-3.87,1.45a35.27,35.27,0,0,1-4.34,0Z"/><path class="cls-1" d="M77.58,140.94c6.7,6.34,14.29,11.6,21.36,17.49,6.16,5.13,12,10.58,15.71,17.88a36.85,36.85,0,0,1,2.06,4.72c.67,1.95,2.15,4.66.61,5.86s-3.16-1.48-4.65-2.55c-7.78-5.61-15.56-11.14-24.77-14.34-9.53-3.32-18.84-2.55-28.15.76-2.77,1-5.6,1.78-8.4,2.66-5.1.84-10.19,1.37-15.18-.61-1.41-.56-3-1.2-2.8-2.94s1.91-1.45,3.18-1.8c2.58-.72,5.21-1.45,7.14-3.53,16.57-13.72,7.42-42-7.54-53.4-9.21-7-20.88-4.52-27.53,5.6a50.12,50.12,0,0,0-5.1,11.16c-1.12.28-1.48-.27-1.65-.85C-2.4,112.56.25,98.51,17.5,93.58c6.62-1.89,13.38-3.19,19.34-7C50.6,77.83,59.09,64.91,65.57,50.42a97,97,0,0,0,7.89-27.24c.12-.91,0-2,1.29-2.88,2.33,3.4,2.42,7.09,1.84,10.86-2.1,13.49-7,26.15-11.88,38.77-3.09,8-5.51,16.08-6.29,24.6-1.46,16,3,30.06,14.27,41.73C74.31,137.84,76.05,139.28,77.58,140.94Z"/><path class="cls-1" d="M83.75,134.83c-9.88-10.11-14.68-22.61-16.23-36.34-1.22-10.83-.89-21.66,4.36-31.7,2.61-1.17,3.45-3.62,4.33-6a24.05,24.05,0,0,1,13.57-9c12.91-3.52,24.93-8.85,35.21-17.64a13.73,13.73,0,0,0,3-3.72L130.94,26c3.7-6.62,4-13.28.22-20A.61.61,0,0,1,131,5.4c1-2.68,2.72-1.45,4.33-.78C143.24,9.28,148.77,22,147,31.33c-1.52,7.83-5.37,14.35-10.09,20.53A5.39,5.39,0,0,1,134,54.92L130.47,58a12.16,12.16,0,0,0-6.88,5.64,71.17,71.17,0,0,1-15.37,9.13,17.55,17.55,0,0,0-5.28,3l-3.08,2.74a17.62,17.62,0,0,1-3.66,3C84.89,92.4,82.72,106,84.75,120.72a70.28,70.28,0,0,0,3.39,14.1C86.68,136.17,85.22,135.67,83.75,134.83Z"/><path class="cls-1" d="M110.36,123.06c.81-9,5-15.73,13.24-19.71.72-.35,1.56-1.11,2.32-.26.6.66-.08,1.35-.38,2-6,13-6.93,26.5-4.72,40.4.79,5,3,9.58,4.31,14.44,1.17,4.67.82,5.21-2.87,4.47-9.85-7-19-14.9-25.1-25.5-8.92-15.52-8.62-31,1.71-45.92A10.37,10.37,0,0,0,99.71,91c3,.25,2,2.12,1.75,3.94-1.17,7.46-2,14.93,1.5,22.08l4.32,7.47C109.35,126.22,109.35,123.57,110.36,123.06Z"/><path class="cls-1" d="M144.37,80.19a148.77,148.77,0,0,1-4.47,19.13c-2.51,1.26-3.76.33-3.51-2.31.15-1.54-.08-3.13.45-4.64-.75-1-1.52-2.1-3-1.35-2.59,1.3-5.45,1.46-8.21,2-8.35,1.6-12.9,7.51-16.56,14.48-.75,1.44-1,4.27-2.63,3.9-2.31-.54-1.46-3.36-1.31-5.14.78-9.24,7-14.56,14.38-18.68a43.78,43.78,0,0,1,8.63-3.14c5.57-1.69,9-5.51,11.39-10.62a1.88,1.88,0,0,0-.47-2.54c-1.79-1.1-2.81.78-4.14,1.23s-2.62,1.15-4,1.57l-4.72,1.68c-2.11.51-4.38.6-5.87,2.62a1.67,1.67,0,0,1-2.6.24,2,2,0,0,1-.34-2.68c.56-.93,1.48-1.64,1.71-2.78l.56-.59c8.32-4.19,16.67-8.32,22.68-15.85,1.18-1.47,1.71-3.27,2.72-4.81l0,0c1.66-1.21,2.3-3.1,3.19-4.82.33-.64.51-1.49,1.47-1.3s1.17,1.07,1.29,2c.2,1.55-.79,2.82-1,4.24C148.84,61.55,145.41,70.63,144.37,80.19Z"/><path class="cls-1" d="M137,111.49c-.18,4.34-1.75,8.4-2.67,12.58-1.08,4.92-.5,6.07,4.29,7.51,6.36,1.91,11.63,5.27,15,11.19,4,7.13.78,12.88-7.36,13-7.48.08-11.94-3.45-15.09-11.66-3.73-9.74-3.33-19.46-.27-29.24,1.26-2.52,1.39-5.39,2.39-8a6.66,6.66,0,0,1,1.3-2.6,1.89,1.89,0,0,1,2-.69,1.72,1.72,0,0,1,1.1,1.75A33.55,33.55,0,0,1,137,111.49Z"/><path class="cls-1" d="M30.83,79.56a11.59,11.59,0,0,1-11.48-11.5A11.73,11.73,0,0,1,31,56.63c6-.08,11.17,5.21,11.22,11.37A11.48,11.48,0,0,1,30.83,79.56Z"/><path class="cls-1" d="M87.95,16.61c0,2.49,2.57,3.55,3.13,5.72,1.25,1.7.31,4.15,1.94,5.72.15,3,2.35,2.43,4.22,2.45,2.51-.56,5.23.37,7.62-1.07a3.18,3.18,0,0,1,1.1-.28c2,.44,3.94,1.07,6.1.17,1.37-.58,3.07-.49,3,1.84-1.29,2.51-4,2.73-6.17,3.75-2.71,1.83-6.12.93-8.95,2.3h0c-1.25,1.26-3.27.07-4.5,1.42l.06.09c-1.27,1.21-3.27,0-4.5,1.39l0,0c-2.81.69-5.16,2.48-7.91,3.33-2.09-.6-1.81-2-1.11-3.46a69.3,69.3,0,0,0,1.52-17.54c-.58-2.42-1.87-5,1.19-6.76A3.06,3.06,0,0,1,87.95,16.61Z"/><path class="cls-1" d="M144.37,80.19c-.07-7.39,2.1-14.33,3.88-21.42a80.86,80.86,0,0,0,2-12.45c-3,1.26-1.56,5.65-5.23,5.61a93.17,93.17,0,0,0,8.34-21.58c.21-.93.4-2.29,1.65-2,1.44.28,1.18,1.76,1,2.78-1.09,5-2.2,10.09-3.47,15.09C149.61,57.47,147.77,69,144.37,80.19Z"/><path class="cls-1" d="M43.7,164.55c-1,4-4.58,3.49-7.39,4.32-.87.26-2.3-.21-2.31,1.08,0,.76,1.05,1.44,2,1.89,5,2.36,10.23,1.17,15.36,1.59-5.55,2.58-11.09,1.75-16.62,0A8.69,8.69,0,0,1,31.18,171c-.68-.51-1.39-1-2-1.54-.43-.38-1-.79-.71-1.51s1-.64,1.58-.56C34.94,168.11,39.33,166.41,43.7,164.55Z"/><path class="cls-1" d="M137,111.49v-7.9c-3.52,2.23-3.73,5.26-4.43,7.93-.34,1.28,0,2.76-1.67,3.32.47-5.25,2.58-10.1,3.8-15.17.6-2.46,1.42-4.86,2.14-7.3a33.54,33.54,0,0,1,.08,4.05c-.22,2.31.77,3.18,3,2.89A49.76,49.76,0,0,1,137,111.49Z"/><path class="cls-1" d="M103,117.06c-2.23-1.41-2.73-3.91-2.91-6.06-.38-4.53-.12-9.11-.12-13.67a3.42,3.42,0,0,1,.69-2.41c1.37-1.63.83-2.92-.92-3.88a14.34,14.34,0,0,1,5-5.44C100.37,96,100.25,106.45,103,117.06Z"/><path class="cls-1" d="M145,51.91c-.24,2.82-1.79,4.81-3.68,6.85A44.71,44.71,0,0,1,126,70c-2.11.9-3.45,3.59-6.35,2.6a10.49,10.49,0,0,1,4.66-3.42C133,65.55,139.75,59.6,145,51.91Z"/><path class="cls-1" d="M119.09,73.16c.4,1.36-.5,2.23-1.15,3.24a1.34,1.34,0,0,0,.39,1.92c.58.36,1.48.21,1.58-.32.83-4.42,4.16-1.58,6.27-2.24a55.83,55.83,0,0,0-9.6,6.55c-.51.47-1.07,1.18-1.87.73s-.49-1.25-.36-2A12.16,12.16,0,0,1,119.09,73.16Z"/><path class="cls-1" d="M114.71,31.2A1.44,1.44,0,0,0,112.33,30c-2.4,1.92-4.44,1.08-6.55-.33a.83.83,0,0,1,.18-1.33l7.28-.18a5.75,5.75,0,0,1,3.82-.75c1.2.09,2.89.2,2.12,2.31l-.12-.08C117.7,30.44,116.66,32.12,114.71,31.2Z"/><path class="cls-1" d="M131.16,6.05c2.09.78,2.9,2.28,2.84,4.49-.09,3.15-.15,6.32,0,9.46a6.14,6.14,0,0,1-3.09,6C133.69,19.41,134,12.75,131.16,6.05Z"/><path class="cls-1" d="M114.71,31.2c1.59-.09,2.52-2.09,4.35-1.52-2.23,4-6.27,5-10.26,6a.88.88,0,0,1,0-1.37Z"/><path class="cls-1" d="M135.32,4.62c-1.45.23-3.1-.65-4.33.78A12.59,12.59,0,0,1,127.92,0C131.06,1.26,133.58,2.22,135.32,4.62Z"/><path class="cls-1" d="M83.6,43c2.09-2,4.47-3.22,7.46-2.84-1.82,2.58-4.71,3.35-7.45,4.34A1.09,1.09,0,0,1,83.6,43Z"/><path class="cls-1" d="M122.28,164.4c4.08.52,2.42-2.65,2.87-4.47l1.48,2.29a6.25,6.25,0,0,1,.53.93c.49,1.44,2.65,2.89.71,4.38s-2.9-.82-4.24-1.62Z"/><path class="cls-1" d="M87.95,16.61l-2.73-.3c-1.15-1.06-2.16-.09-3.21.24-2.06-1.13-2-2.5.17-3C84.68,13,87.28,13.25,87.95,16.61Z"/><path class="cls-1" d="M76.21,60.75c.17,3.17.31,6.32-4.33,6C72.25,64,74.31,62.44,76.21,60.75Z"/><path class="cls-1" d="M123.59,63.64c.57-3.65,3.13-5.74,6.88-5.64A24.22,24.22,0,0,1,123.59,63.64Z"/><path class="cls-1" d="M108.84,34.26l0,1.37c-2.69,1.93-5.76,1.71-8.82,1.58.07-.63.26-1.38.93-1.35C103.7,36,106.24,35,108.84,34.26Z"/><path class="cls-1" d="M82,16.55c.91-2.25,2-2.42,3.21-.24-3.12,1.36-.67,4.22-1.66,6.15C81.13,21,82.68,18.48,82,16.55Z"/><path class="cls-1" d="M96.89,31.18c-2,0-4.81,1.11-4.45-2.77a1.3,1.3,0,0,1,.22-1.77c1.51,1.67,2.59,4.16,5.61,2.93l.36.31C98.63,31.1,97.42,30.68,96.89,31.18Z"/><path class="cls-1" d="M106,28.38l-.18,1.33h-.34l-.34,0a7.21,7.21,0,0,1-6.6.1l-.24-.26C100.5,27,103.38,28.68,106,28.38Z"/><path class="cls-1" d="M83.75,134.83h4.39a1.74,1.74,0,0,1,.4,2.73c-.81.84-1.74-.07-2.46-.64S84.11,136,83.75,134.83Z"/><path class="cls-1" d="M83.6,43q0,.75,0,1.5c-1.19.07-2.66.54-2.88-1.27C80.58,42,79.94,40.38,82,40,82.53,41,81.53,42.8,83.6,43Z"/><path class="cls-1" d="M92.66,26.65l-.21,1.77a9.92,9.92,0,0,1-1.37-6.08C93.58,23,92.18,25.19,92.66,26.65Z"/><path class="cls-1" d="M77.58,140.94a13.22,13.22,0,0,1-4.89-4.68C74.81,137.31,76.71,138.59,77.58,140.94Z"/><path class="cls-1" d="M102.94,75.75c1-2.31,3-2.9,5.28-3A12.7,12.7,0,0,1,102.94,75.75Z"/><path class="cls-1" d="M91,40.11c.92-2.34,2.9-1.27,4.5-1.39C94.67,41.2,92.6,39.85,91,40.11Z"/><path class="cls-1" d="M95.48,38.63c.85-2.53,2.92-1.18,4.5-1.42C99.1,39.63,97.07,38.42,95.48,38.63Z"/><path class="cls-1" d="M128,30.43c.14,2.18-1.18,3.16-3,3.72C125.44,32.44,126.8,31.49,128,30.43Z"/><path class="cls-1" d="M98.51,29.84l6.6-.1c-.55,2.41-2.5,1.29-3.87,1.45a35.27,35.27,0,0,1-4.34,0Z"/></g></g></svg>